<svg id="Camada_1" data-name="Camada 1" xmlns="http://www.w3.org/2000/svg" viewBox="0 0 384 384"><path d="M.75,291.18V42.67c3.33-10.4,10.06-16.29,21.36-16.29q170.23,0,340.47,0C375.73,26.4,384,34.79,384,48v238c0,13.49-8.16,21.72-21.59,21.72q-170.06,0-340.1,0a27.27,27.27,0,0,1-5.57-.46C8,305.33,3.21,299.38.75,291.18Zm15.88-47.49H367.85c.07-1.37.17-2.47.17-3.58q0-95.61,0-191.23c0-5.61-.94-6.46-7-6.46H23.51c-6.07,0-6.88.81-6.88,6.92V243.69Zm189.21,32a13.47,13.47,0,1,0-13.52,13.54A13.46,13.46,0,0,0,205.84,275.7Z"/><path d="M145.54,332.11V315.87h93.74v16.24c6.49,0,12.56,0,18.64,0,8.48.08,15.08,3.75,19.89,10.68,2.49,3.58,3.64,7.4,1.47,11.56s-6,5.53-10.62,5.52q-66.38-.06-132.76,0c-6.73,0-13.47,0-20.2,0-4.3,0-7.89-1.25-10.06-5.17s-1.37-7.72.94-11.29c4.76-7.35,11.51-11.2,20.3-11.29C133,332.06,139,332.11,145.54,332.11Z"/><path d="M249.42,166.17q0,24,0,47.9c0,7.24-2.67,9.88-9.95,9.92-4.61,0-9.23.08-13.84,0-5.66-.12-8.67-3-8.68-8.52q-.07-49.21,0-98.42c0-5.59,3-8.48,8.61-8.57,5-.07,10-.06,15,0,6,.07,8.87,3,8.89,9.06C249.45,133.74,249.42,150,249.42,166.17Z"/><path d="M69.77,64.42v39.87c0,11.09,4.25,15.29,15.44,15.29H124.8c-1,16.11-22.11,32.77-41.59,33.13a45.43,45.43,0,0,1-46.38-40.88C34.6,90.68,50.09,68.08,69.77,64.42Z"/><path d="M348.07,174.79q0,19.64,0,39.29c0,7.16-2.74,9.86-10,9.91-4.12,0-8.23,0-12.35,0-7.69,0-10.4-2.71-10.41-10.33q0-35.73,0-71.47c0-2.86-.1-5.74,0-8.6.24-5.22,3.33-8.33,8.54-8.46s10.47-.14,15.71,0,8.44,3.39,8.46,8.87C348.11,147.6,348.07,161.19,348.07,174.79Z"/><path d="M298.71,187.15c0,9.1,0,18.19,0,27.29,0,6.7-2.81,9.48-9.57,9.55-4.86,0-9.73.09-14.58,0-5.33-.13-8.47-3-8.5-8.37q-.19-28.78,0-57.56c0-5.36,3.22-8.3,8.48-8.39s10.46-.09,15.7,0c5.44.09,8.44,3.16,8.47,8.73C298.75,168,298.71,177.56,298.71,187.15Z"/><path d="M200.11,186.76c0,9.23,0,18.46,0,27.69,0,6.75-2.8,9.48-9.58,9.54-4.86,0-9.73.09-14.59,0-5.33-.14-8.3-3.15-8.31-8.5q-.09-28.63,0-57.25c0-5.55,3-8.48,8.61-8.57,4.61-.07,9.23,0,13.84,0,7.45,0,10,2.61,10,10.2C200.13,168.8,200.11,177.78,200.11,186.76Z"/><path d="M102.17,111.53c-6.36,0-12.72,0-19.08,0-3.79,0-5.17-1.4-5.18-5.21q-.07-19.28,0-38.54c0-4.17,1.54-5.5,5.79-5.31A45.33,45.33,0,0,1,127,105.78c.16,4.17-1.24,5.71-5.4,5.74C115.14,111.56,108.66,111.53,102.17,111.53Z"/><path d="M232.77,72.24c-5.09,4.9-9.94,9.53-14.77,14.19q-14.79,14.29-29.58,28.6c-.8.77-1.63,2-2.52,2.1-1.67.13-3.9.07-4.93-.92-.82-.78-.49-3.13-.13-4.66.22-.93,1.46-1.63,2.27-2.41L228.85,65c3.77-3.63,5.43-3.54,8.81.48l43.07,51.24c.72.85,1.47,1.68,2.4,2.75,1.16-.75,2.3-1.43,3.37-2.18l40.92-28.89c.61-.43,1.22-.87,1.84-1.29,2.08-1.38,4.13-1.31,5.61.73,1.59,2.19,1,4.26-1.17,5.84s-4.05,2.9-6.08,4.34q-20.46,14.46-40.91,28.91c-4.21,3-5.52,2.8-8.78-1.08L234.86,74.59C234.3,73.92,233.7,73.29,232.77,72.24Z"/><path d="M81.55,200.51q-19.24,0-38.49,0c-1.23,0-2.75.19-3.62-.43-1.17-.83-2.54-2.37-2.54-3.6s1.4-2.76,2.58-3.58c.88-.61,2.4-.41,3.63-.41q38.67,0,77.35,0c1,0,2.31-.34,2.92.16,1.39,1.13,3.23,2.62,3.36,4.1.1,1.13-2,2.7-3.4,3.62-.79.52-2.18.16-3.3.16Q100.79,200.53,81.55,200.51Z"/><path d="M81.88,176.9H43.34c-1.24,0-2.74.27-3.67-.3-1.22-.76-2.8-2.27-2.74-3.39.07-1.36,1.5-2.83,2.68-3.88.59-.52,1.92-.25,2.91-.25q39.3,0,78.58,0c1,0,2.32-.3,2.92.21,1.2,1,2.68,2.49,2.77,3.85.08,1.12-1.5,2.67-2.71,3.45-.92.58-2.42.3-3.66.3Q101.14,176.92,81.88,176.9Z"/><path d="M81.59,216.14h38.54c1.12,0,2.51-.35,3.3.18,1.39.94,3.29,2.4,3.32,3.68s-1.83,2.82-3.18,3.79c-.76.55-2.18.2-3.3.2H43.57c-3,0-6.38.45-6.81-3.87-.27-2.8,1.85-4,6.66-4Z"/><path d="M197.73,275.73a5.36,5.36,0,1,1-5.55-5.36A5.5,5.5,0,0,1,197.73,275.73Z"/></svg>