<svg id="Camada_1" data-name="Camada 1" xmlns="http://www.w3.org/2000/svg" viewBox="0 0 384 384"><path d="M.75,158.69v-15c.5-4.06,1-8.12,1.49-12.18A146.56,146.56,0,0,1,26.45,67.48a146,146,0,0,1,64.06-53.3c29.1-12.66,59.33-15.92,90.33-9.5C213.15,11.37,240.59,27,262.59,51.8,284.92,77,297.47,106.49,300,140a147.23,147.23,0,0,1-24,93.46c-.71,1.09-1.35,2.23-2.17,3.6,7.86,1.72,13.47,6.08,18.67,11.3q40,40.17,80.09,80.21a66,66,0,0,1,5.22,5.86c8.37,10.66,8,27.27-.37,37.92-5.47,6.92-12.71,10.53-21.05,12.44h-8.23c-9.76-1.88-16.87-7.81-23.65-14.67-23.13-23.41-46.52-46.56-69.74-69.89-7.48-7.5-16.22-14.12-18.46-25.65-1.44.85-2.41,1.38-3.34,2A148.1,148.1,0,0,1,170.8,299.7c-28.76,3.88-56.63.33-82.72-12.22-49.19-23.66-77.91-62.86-85.9-117C1.6,166.56,1.22,162.62.75,158.69Zm261.84-7.34a111.88,111.88,0,0,0-223.75.12c.08,61.79,50.3,112,111.87,111.87S262.71,212.84,262.59,151.35Z"/></svg>