<svg id="Camada_1" data-name="Camada 1" xmlns="http://www.w3.org/2000/svg" viewBox="0 0 384 384"><path d="M.75,87.58c2.57-3.13,4.92-6.49,7.76-9.35C25.81,60.78,43.26,43.48,60.56,26a16.16,16.16,0,0,1,12.3-5.1Q178,21.05,283.15,21c9.68,0,14.11,4.45,14.11,14.2q0,46.95-.05,93.92c0,2.43.61,3.7,3,4.75,50.09,22.33,67.11,83,36,128-.48.71-.94,1.44-1.52,2.33,1,1,1.88,2,2.83,3Q358.36,288,379.3,308.91c2.77,2.76,4.75,5.83,4.61,9.83-.17,4.9-2.46,8.63-7,10.63a11.3,11.3,0,0,1-12.61-1.7c-2.65-2.25-5-4.84-7.49-7.31l-36.26-36.25c-.95-.95-1.94-1.86-2.55-2.44-6.6,3.49-12.92,6.68-19.05,10.2-1,.57-1.62,2.59-1.63,3.95-.1,18.33-.06,36.67-.07,55,0,10.2-4.3,14.44-14.62,14.44q-133.21,0-266.42.1c-7.34,0-12.51-2.28-15.47-9.06ZM24.89,341.05H273.07V298.29c-48.57,4.68-92.94-34.64-93-85.64-.11-49.44,42.15-90,93.06-86V45.17H82.58v4.26c0,13.34,0,26.69,0,40,0,8.78-4.62,13.3-13.44,13.32-13.35,0-26.7,0-40,0H24.89Zm241.32-66.67a61.89,61.89,0,0,0,61.6-62.89c-.41-34-28.78-61.45-62.87-60.93a62,62,0,0,0-60.81,62.56C204.64,247.35,232.46,274.8,266.21,274.38ZM43.06,78.6h15.3V63.38Z"/><path d="M102.28,276.4c-10.72,0-21.44.12-32.16,0A11.57,11.57,0,0,1,59.29,268c-1.45-5,.23-10.57,4.6-13.18a16,16,0,0,1,7.71-2.25c20.58-.18,41.15-.16,61.73-.06,7.41,0,12.63,5.18,12.63,12s-5.21,11.84-12.63,11.91c-10.35.1-20.7,0-31.05,0Z"/><path d="M102.17,219.62c-10.35,0-20.71.15-31-.05-8.32-.16-13.55-6.66-12-14.44,1.12-5.71,5.93-9.39,12.63-9.41,15.34-.06,30.68,0,46,0,5.61,0,11.23-.17,16.83.09A11.87,11.87,0,0,1,138,218.87a21.48,21.48,0,0,1-6.26.74c-9.85.08-19.7,0-29.55,0Z"/><path d="M102.56,162.74c-10.6,0-21.2.09-31.79,0a11.81,11.81,0,0,1-11.4-8.11c-1.54-4.74-.13-10.32,4-13a15.76,15.76,0,0,1,7.94-2.62c20.69-.21,41.39-.19,62.09-.06,7.45,0,12.59,5.23,12.54,12s-5.27,11.75-12.73,11.82c-10.22.1-20.45,0-30.67,0Z"/></svg>