<svg id="Camada_1" data-name="Camada 1" xmlns="http://www.w3.org/2000/svg" viewBox="0 0 384 384"><path d="M309.15,384.75H75.6a4.63,4.63,0,0,0-1-.49C56.16,380,46.4,367.68,46.41,348.7q.14-143.89.31-287.8a41.45,41.45,0,0,1,.88-10.4c6.59-24.85,27-28.77,47.71-25.9,0,4.08-.11,8.2,0,12.31a44.86,44.86,0,0,0,.9,8.9c3.29,13.88,15.1,23,29.78,23q65.68.06,131.36,0c20,0,32.32-12.4,32.34-32.5V24c5.25,0,10-.05,14.7,0,19.2.2,33.88,14.76,33.87,34q0,145.77-.28,291.54c0,18.2-10.12,30.5-27.93,34.67A3.61,3.61,0,0,0,309.15,384.75Zm-72.9-98.81q-19.26,0-38.52,0c-7.58,0-12.73,4.53-12.78,11.15s5.14,11.29,12.65,11.29q38.52,0,77,0c7.61,0,12.72-4.5,12.76-11.15S282.31,286,274.78,286Q255.52,285.92,236.25,285.94Zm-.11-127.25q19.08,0,38.16,0c7.6,0,12.7-4.5,12.74-11.16s-5.08-11.28-12.61-11.28q-38.35,0-76.7,0c-7.56,0-12.73,4.55-12.78,11.16s5.15,11.27,12.66,11.28C210.45,158.71,223.3,158.69,236.14,158.69Zm0,74.85q19.08,0,38.16,0c7.58,0,12.68-4.53,12.71-11.19S282,211.1,274.4,211.09H197.71c-7.57,0-12.73,4.56-12.76,11.18s5.16,11.25,12.68,11.27Q216.9,233.57,236.17,233.54Zm-113.89-9.85c-2.08-2.31-3.77-4.48-5.75-6.35-4.68-4.43-11.46-4.43-15.82-.16a11.07,11.07,0,0,0-.14,15.8q6.8,7.2,14,14c4.91,4.66,11.25,4.72,16.05,0,11.28-11.09,22.43-22.33,33.57-33.56a11.19,11.19,0,1,0-15.86-15.8C139.86,206.06,131.43,214.53,122.28,223.69Zm.06,74.78c-2.15-2.34-3.89-4.48-5.88-6.35a11.22,11.22,0,0,0-15.82,0,11.09,11.09,0,0,0,0,15.8q6.83,7.18,14,14c4.9,4.63,11.23,4.62,16.06-.14q16.91-16.66,33.56-33.57a11.18,11.18,0,0,0-4.33-18.53,10.89,10.89,0,0,0-11.68,2.88C139.8,281,131.36,289.44,122.34,298.47Zm-.19-155.33c-2.05-2.33-3.7-4.55-5.69-6.41-4.75-4.47-11.4-4.42-15.78-.06a11.07,11.07,0,0,0-.08,15.8q6.81,7.18,14,14c4.9,4.66,11.2,4.68,16-.09,11.27-11.1,22.42-22.33,33.56-33.57a11.17,11.17,0,0,0-4.54-18.65A11.1,11.1,0,0,0,148,117.3C139.68,125.66,131.31,134,122.15,143.14Z"/><path d="M192.77,46.41q-32.72,0-65.44,0c-6.89,0-9.56-2.61-9.59-9.44q-.06-13.09,0-26.18c0-6.61,2.74-9.29,9.35-9.29q65.44,0,130.89,0c6.73,0,9.29,2.55,9.3,9.24q0,13.28,0,26.56c0,6.44-2.65,9.1-9.06,9.1Q225.49,46.43,192.77,46.41Z"/></svg>