<svg id="Camada_1" data-name="Camada 1" xmlns="http://www.w3.org/2000/svg" viewBox="0 0 384 384"><path d="M90.58,89.27c5.12,0,9.17-.09,13.21,0,5.11.15,8.38,3.1,8.61,7.52.23,4.58-2.76,8.3-7.62,8.41q-16.26.36-32.55,0c-4.48-.1-7.47-3.23-7.55-7.77q-.32-16.09,0-32.18a7.62,7.62,0,0,1,7.94-7.75c4.38,0,7.64,3,8,7.76.22,3.43,0,6.88,0,11.15,3.2-2.7,5.69-4.88,8.27-7,34.77-27.92,74.51-39.2,118.72-35.21,67.86,6.13,125.46,56.18,140.67,124.34,17.31,77.55-25.86,156.9-100.68,184.33C154.66,377,53.29,319.48,35.45,222.36c-1.68-9.14-2-18.56-2.6-27.88-.37-5.64,3-9.35,7.83-9.34s7.86,3.63,8,9.35C50.09,262.41,95.13,318,161.18,333.36,235.84,350.73,312.66,303.65,331.54,229,352,148.08,301,67.31,219,52c-45.85-8.55-87.32,2.3-123.3,32.53C94.19,85.78,92.83,87.17,90.58,89.27Z"/><path d="M264.23,160.23c7.51,3.85,15,6.43,21,11,16,12.17,22,28.9,17.6,48.38s-17.05,31.34-36.29,36.18c-2.2.55-3.3,1.28-4.07,3.51-4.5,13.06-15.86,21.43-29.76,21.52-26.81.18-53.62.25-80.43,0-18.24-.17-31.68-14-31.72-32.33q-.12-55.36,0-110.74c0-18.28,13.48-32.14,31.73-32.3q40-.37,80.06,0c18.44.15,31.77,14,31.89,32.54C264.28,145.82,264.23,153.66,264.23,160.23Zm-17.71,96c-1.19-.4-2.09-.75-3-1a47.8,47.8,0,0,1,1.78-92.73c2.56-.59,3.13-1.67,3.08-4-.12-6.48,0-13-.05-19.45,0-11.39-6.5-17.79-17.93-17.79H154.83c-12.16,0-18.4,6.24-18.41,18.43q0,39.47,0,78.94c0,9.85-.08,19.7,0,29.55.1,9.58,6.51,16.68,15.53,16.73q40.4.22,80.8,0C238.81,264.88,243.35,261.82,246.52,256.27ZM224.4,208.89a31.89,31.89,0,1,0,32.34-31.64A31.81,31.81,0,0,0,224.4,208.89Z"/><path d="M192.7,137.17q15,0,29.91,0c3.12,0,5.95.6,8,3.23a7.9,7.9,0,0,1-3.66,12.27,11.68,11.68,0,0,1-3.67.57q-30.84.06-61.7,0c-5.67,0-9.12-3.32-9-8.25.11-4.71,3.53-7.75,9.09-7.79C172,137.12,182.35,137.17,192.7,137.17Z"/><path d="M180.23,185.07c-6.36,0-12.71.06-19.07,0-5.3-.07-8.54-3.09-8.59-7.79s3.38-8,8.74-8.07q19.06-.08,38.13,0c5.44,0,8.82,3.2,8.79,8s-3.28,7.76-8.56,7.83C193.19,185.14,186.71,185.07,180.23,185.07Z"/><path d="M264.19,201.22c3.24,0,5.84-.12,8.43,0a7.88,7.88,0,0,1,.23,15.72c-5.71.24-11.45.23-17.17,0a7.43,7.43,0,0,1-7.26-7.55c-.17-5.59-.18-11.2,0-16.79a7.73,7.73,0,0,1,7.78-7.49,7.92,7.92,0,0,1,7.93,7.41C264.36,195.25,264.19,198,264.19,201.22Z"/></svg>